<svg width="8" height="8" viewBox="0 0 8 8" fill="none" xmlns="http://www.w3.org/2000/svg">
<g id="Frame" clip-path="url(#clip0_14_121)">
<path id="Vector" d="M6.57301 6.55799C6.62901 6.61299 6.66501 6.68799 6.57301 6.76199L5.42501 7.50199C5.33201 7.55799 5.29501 7.52199 5.25801 7.42899L3.83201 4.94699L1.96201 7.00199C1.94201 7.03899 1.88701 7.07599 1.83201 7.00199L0.943006 6.07599C0.851006 6.02099 0.869006 5.96499 0.943006 5.90899L3.05401 4.14899L0.646006 3.24299C0.609006 3.24299 0.554006 3.16899 0.591006 3.07599L1.22101 1.81699C1.22598 1.80037 1.23531 1.78539 1.24804 1.7736C1.26077 1.76182 1.27643 1.75367 1.29338 1.74999C1.31033 1.74631 1.32796 1.74725 1.34443 1.7527C1.36089 1.75815 1.3756 1.76792 1.38701 1.78099L3.49801 3.15099L3.62801 0.446989C3.62578 0.431941 3.62713 0.416582 3.63194 0.402151C3.63675 0.387721 3.64488 0.374623 3.65569 0.363916C3.66649 0.35321 3.67966 0.345194 3.69414 0.340516C3.70861 0.335838 3.72398 0.33463 3.73901 0.336989L5.27701 0.539989C5.36901 0.539989 5.38701 0.576989 5.36901 0.669989L4.64701 3.31699L7.09101 2.57699C7.14701 2.53899 7.20201 2.53899 7.23901 2.64999L7.48001 4.01999C7.49901 4.11299 7.48001 4.14999 7.40601 4.14999L4.85001 4.35399L6.57301 6.55799Z" fill="#D92A16"/>
</g>
<defs>
<clipPath id="clip0_14_121">
<rect width="8" height="8" fill="white"/>
</clipPath>
</defs>
</svg>
