<svg width="24" height="24" viewBox="0 0 24 24" fill="none" xmlns="http://www.w3.org/2000/svg">
<g id="Frame">
<path id="Vector" d="M21.4299 12.62C21.4299 11.95 21.3699 11.31 21.2599 10.69H12.3999V14.33H17.4599C17.2499 15.51 16.5799 16.5 15.5899 17.17V19.53H18.6299C20.3999 17.89 21.4299 15.48 21.4299 12.62Z" fill="#4285F4"/>
<path id="Vector_2" d="M12.4 21.81C14.94 21.81 17.07 20.96 18.63 19.53L15.59 17.17C14.75 17.73 13.67 18.07 12.4 18.07C9.95 18.07 7.88 16.41 7.14 14.19H4V16.63C5.55 19.7 8.73 21.81 12.4 21.81Z" fill="#34A853"/>
<path id="Vector_3" d="M7.14 14.19C6.95 13.63 6.85 13.02 6.85 12.4C6.85 11.78 6.95 11.18 7.14 10.62V8.17999H4C3.36 9.44999 3 10.89 3 12.4C3 13.92 3.36 15.36 4 16.63L7.14 14.19Z" fill="#FBBC05"/>
<path id="Vector_4" d="M12.4 6.74C13.78 6.74 15.02 7.21 16 8.15L18.69 5.45C17.07 3.93 14.94 3 12.4 3C8.73 3 5.55 5.11 4 8.18L7.14 10.62C7.88 8.39 9.95 6.74 12.4 6.74Z" fill="#EA4335"/>
</g>
</svg>
