<svg width="16" height="16" viewBox="0 0 16 16" fill="none" xmlns="http://www.w3.org/2000/svg">
<g id="Group">
<path id="Vector" d="M8 0C6.41775 0 4.87103 0.469192 3.55544 1.34824C2.23985 2.22729 1.21447 3.47672 0.608967 4.93853C0.00346625 6.40034 -0.15496 8.00887 0.153721 9.56072C0.462403 11.1126 1.22433 12.538 2.34315 13.6569C3.46197 14.7757 4.88743 15.5376 6.43928 15.8463C7.99113 16.155 9.59966 15.9965 11.0615 15.391C12.5233 14.7855 13.7727 13.7602 14.6518 12.4446C15.5308 11.129 16 9.58225 16 8C16 5.87827 15.1571 3.84344 13.6569 2.34315C12.1566 0.842855 10.1217 0 8 0ZM7.85 2.15C8.03906 2.13967 8.2282 2.16897 8.40527 2.23601C8.58235 2.30304 8.74347 2.40634 8.87829 2.53928C9.01312 2.67223 9.11867 2.83187 9.18819 3.00799C9.25772 3.18411 9.28967 3.37281 9.282 3.562C9.29696 3.75384 9.27018 3.94665 9.2035 4.12715C9.13682 4.30765 9.03182 4.47156 8.89574 4.6076C8.75965 4.74364 8.5957 4.84858 8.41518 4.9152C8.23465 4.98181 8.04184 5.00853 7.85 4.9935C7.65893 5.0051 7.46756 4.97601 7.28856 4.90815C7.10957 4.84029 6.94701 4.73521 6.81165 4.59985C6.67629 4.46449 6.57121 4.30193 6.50335 4.12294C6.43549 3.94394 6.4064 3.75258 6.418 3.5615C6.41033 3.37233 6.44228 3.18365 6.51181 3.00756C6.58133 2.83146 6.6869 2.67185 6.82173 2.53894C6.95656 2.40604 7.11769 2.30279 7.29476 2.23581C7.47184 2.16883 7.66097 2.1396 7.85 2.15ZM10 12.5C10 12.6326 9.94732 12.7598 9.85356 12.8536C9.75979 12.9473 9.63261 13 9.5 13H6.5C6.36739 13 6.24022 12.9473 6.14645 12.8536C6.05268 12.7598 6 12.6326 6 12.5V11.5C6 11.3674 6.05268 11.2402 6.14645 11.1464C6.24022 11.0527 6.36739 11 6.5 11H7V8H6.5C6.36739 8 6.24022 7.94732 6.14645 7.85355C6.05268 7.75978 6 7.63261 6 7.5V6.5C6 6.36739 6.05268 6.24021 6.14645 6.14645C6.24022 6.05268 6.36739 6 6.5 6H8.5C8.63261 6 8.75979 6.05268 8.85356 6.14645C8.94732 6.24021 9 6.36739 9 6.5V11H9.5C9.63261 11 9.75979 11.0527 9.85356 11.1464C9.94732 11.2402 10 11.3674 10 11.5V12.5Z" fill="#147AF3"/>
</g>
</svg>
