<svg width="16" height="15" viewBox="0 0 16 15" fill="none" xmlns="http://www.w3.org/2000/svg">
<g id="Group">
<path id="Vector" d="M7.73329 1.03505L0.299068 14.3386C0.261265 14.4062 0.241791 14.4825 0.242577 14.56C0.243362 14.6375 0.26438 14.7134 0.303546 14.7802C0.342712 14.847 0.398666 14.9025 0.465861 14.941C0.533057 14.9796 0.609159 14.9999 0.686623 14.9999H15.556C15.6334 14.9999 15.7095 14.9796 15.7767 14.941C15.8439 14.9025 15.8999 14.847 15.939 14.7802C15.9782 14.7134 15.9992 14.6375 16 14.56C16.0008 14.4825 15.9813 14.4062 15.9435 14.3386L8.50929 1.03505C8.47072 0.966015 8.41443 0.908519 8.34622 0.868496C8.27802 0.828473 8.20037 0.807373 8.12129 0.807373C8.04221 0.807373 7.96456 0.828473 7.89635 0.868496C7.82815 0.908519 7.77186 0.966015 7.73329 1.03505ZM9.01018 12.9999C9.01018 13.0589 8.98677 13.1154 8.94509 13.1571C8.90342 13.1988 8.84689 13.2222 8.78796 13.2222H7.45462C7.39569 13.2222 7.33916 13.1988 7.29749 13.1571C7.25581 13.1154 7.2324 13.0589 7.2324 12.9999V11.6666C7.2324 11.6077 7.25581 11.5511 7.29749 11.5095C7.33916 11.4678 7.39569 11.4444 7.45462 11.4444H8.78796C8.84689 11.4444 8.90342 11.4678 8.94509 11.5095C8.98677 11.5511 9.01018 11.6077 9.01018 11.6666V12.9999ZM9.01018 10.3333C9.01018 10.3922 8.98677 10.4487 8.94509 10.4904C8.90342 10.5321 8.84689 10.5555 8.78796 10.5555H7.45462C7.39569 10.5555 7.33916 10.5321 7.29749 10.4904C7.25581 10.4487 7.2324 10.3922 7.2324 10.3333V4.99994C7.2324 4.941 7.25581 4.88448 7.29749 4.84281C7.33916 4.80113 7.39569 4.77772 7.45462 4.77772H8.78796C8.84689 4.77772 8.90342 4.80113 8.94509 4.84281C8.98677 4.88448 9.01018 4.941 9.01018 4.99994V10.3333Z" fill="#D92A16"/>
</g>
</svg>
